<svg id="Capa_1" enable-background="new 0 0 512 512" height="512" viewBox="0 0 512 512" width="512" xmlns="http://www.w3.org/2000/svg"><g><path d="m371.431 250.929c-58.865 0-106.755 47.89-106.755 106.755s47.89 106.755 106.755 106.755 106.755-47.89 106.755-106.755-47.89-106.755-106.755-106.755zm0 198.51c-50.594 0-91.755-41.161-91.755-91.755s41.161-91.755 91.755-91.755 91.755 41.161 91.755 91.755-41.161 91.755-91.755 91.755z"/><path d="m371.431 296.475c4.143 0 7.5-3.357 7.5-7.5v-3.435c0-4.143-3.357-7.5-7.5-7.5s-7.5 3.357-7.5 7.5v3.435c0 4.142 3.358 7.5 7.5 7.5z"/><path d="m417.141 301.366-2.43 2.43c-2.929 2.93-2.929 7.678 0 10.607 2.931 2.929 7.678 2.928 10.607 0l2.43-2.43c2.929-2.93 2.929-7.678 0-10.607-2.929-2.927-7.677-2.927-10.607 0z"/><path d="m432.639 357.684c0 4.143 3.357 7.5 7.5 7.5h3.436c4.143 0 7.5-3.357 7.5-7.5s-3.357-7.5-7.5-7.5h-3.436c-4.142 0-7.5 3.357-7.5 7.5z"/><path d="m302.722 350.184h-3.436c-4.143 0-7.5 3.357-7.5 7.5s3.357 7.5 7.5 7.5h3.436c4.143 0 7.5-3.357 7.5-7.5s-3.357-7.5-7.5-7.5z"/><path d="m425.317 400.964c-2.93-2.929-7.679-2.929-10.606.003-2.928 2.929-2.927 7.678.003 10.606l2.43 2.429c2.926 2.926 7.677 2.929 10.606-.003 2.928-2.929 2.927-7.678-.003-10.606z"/><path d="m371.431 418.893c-4.143 0-7.5 3.357-7.5 7.5v3.436c0 4.143 3.357 7.5 7.5 7.5s7.5-3.357 7.5-7.5v-3.436c0-4.143-3.357-7.5-7.5-7.5z"/><path d="m317.542 400.965-2.429 2.429c-2.929 2.93-2.929 7.678 0 10.607 2.931 2.929 7.678 2.928 10.607 0l2.429-2.429c2.929-2.93 2.929-7.678 0-10.607-2.929-2.928-7.677-2.928-10.607 0z"/><path d="m317.542 314.401c2.926 2.928 7.675 2.933 10.606.003 2.93-2.929 2.931-7.678.003-10.606l-2.429-2.43c-2.929-2.931-7.678-2.93-10.606-.003-2.93 2.929-2.931 7.678-.003 10.606z"/><path d="m391.874 350.184h-12.942v-32.084c0-4.143-3.357-7.5-7.5-7.5s-7.5 3.357-7.5 7.5v39.584c0 4.143 3.357 7.5 7.5 7.5h20.442c4.143 0 7.5-3.357 7.5-7.5s-3.358-7.5-7.5-7.5z"/><path d="m485.521 275.564c-2.424-3.36-7.11-4.118-10.471-1.697-3.359 2.423-4.119 7.11-1.697 10.471 15.47 21.453 23.647 46.816 23.647 73.346 0 69.239-56.33 125.569-125.568 125.569-69.239 0-125.569-56.33-125.569-125.569 0-69.238 56.33-125.568 125.569-125.568 30.53 0 59.962 11.095 82.873 31.24 3.109 2.732 7.85 2.431 10.585-.681 2.734-3.11 2.431-7.85-.681-10.585-21.904-19.26-49.133-31.123-77.902-34.179.2-3.604.313-7.205.313-10.767 0-123.135-114.048-215.313-234.854-188.836-4.046.887-6.607 4.886-5.721 8.932.887 4.047 4.89 6.605 8.932 5.721 10.889-2.387 22.06-3.748 33.277-4.063 1.573 29.388 12.717 83.674 71.872 98.938 9.803 2.53 18.622 3.617 26.655 3.617 24.474 0 41.619-10.1 56.822-20.29 18.351 28.646 28.017 61.671 28.017 95.981 0 3.298-.105 6.633-.292 9.973-48.066.035-90.559 24.323-115.893 61.259-14.229-13.935-33.609-22.65-73.478-4.466-16.743 7.635-30.162 19.229-39.882 34.463-2.229 3.491-1.204 8.128 2.288 10.356 3.498 2.233 8.134 1.197 10.357-2.288 8.138-12.751 19.396-22.469 33.462-28.883 36.085-16.459 48.971-7.364 59.237 3.999-10.559 19.722-16.557 42.236-16.557 66.127 0 7.953.674 15.751 1.95 23.347-12.932 2.927-26.186 4.422-39.501 4.422-18.726 0-37.12-2.889-54.762-8.576.316-12.254 1.9-23.672 4.722-34.009 1.091-3.995-1.264-8.119-5.26-9.21-3.994-1.089-8.12 1.265-9.21 5.261-2.736 10.024-4.417 20.904-5.035 32.448-22.093-9.377-42.188-23.227-58.916-40.593 36.884-27.771 63.649-66.481 69.024-100.498 3.219-20.377-.963-38.322-12.432-53.337-25.445-33.299-20.167-45.774-12.863-63.042 1.742-4.117 3.542-8.374 5.039-13.136 6.154-19.583-1.782-39.249-7.156-49.374 6.773-3.786 13.812-7.141 21.008-10.004 3.849-1.532 5.727-5.894 4.195-9.742-1.532-3.847-5.894-5.727-9.741-4.195-71.704 28.536-121.924 98.415-121.924 179.698 0 106.568 86.339 193.31 193.31 193.31 14.415 0 28.765-1.618 42.77-4.785 16.612 59.116 70.999 102.585 135.351 102.585 77.51 0 140.568-63.06 140.568-140.569.001-29.7-9.156-58.096-26.478-82.121zm-221.647-162.252c-21.665-5.591-57.458-23.966-60.616-84.186 51.817 2.897 100.111 28.47 131.719 69.759-18.769 12.565-37.786 23.022-71.103 14.427zm-170.21-54.04c4.21 8.144 10.03 23.023 5.641 36.993-1.281 4.076-2.939 7.997-4.543 11.788-7.855 18.569-15.978 37.771 14.758 77.993 8.881 11.628 12.09 25.722 9.535 41.891-4.765 30.161-30.253 66.276-64.197 91.568-25.746-31.705-39.858-71.336-39.858-112.361 0-59.557 29.488-114.66 78.664-147.872z"/></g></svg>